<svg xmlns="http://www.w3.org/2000/svg" width="1510" height="323.2"
	xmlns:xlink="http://www.w3.org/1999/xlink" version="1.1" viewBox="0 0 1510 323.2">
	<defs>
		<linearGradient id="logo-gradient" x1="73.3" y1="-42.3" x2="308.9" y2="365.6"
			gradientUnits="userSpaceOnUse">
			<stop offset=".5" stop-color="#b5b2a5" />
			<stop offset=".5" stop-color="#fff" stop-opacity="0" />
		</linearGradient>
		<linearGradient id="logo-gradient-2" x1="73.3" y1="365.6" x2="308.9" y2="-42.3"
			gradientUnits="userSpaceOnUse">
			<stop offset=".5" stop-color="#e0ddcf" />
			<stop offset=".5" stop-color="#fff" stop-opacity="0" />
		</linearGradient>
	</defs>
	<g>
		<rect x="14.2" y="14.2" width="353.9" height="294.9" fill="none"
			stroke="url(#logo-gradient)" stroke-miterlimit="10" stroke-width="28.3" />
		<rect x="14.2" y="14.2" width="353.9" height="294.9" fill="none"
			stroke="url(#logo-gradient-2)" stroke-miterlimit="10" stroke-width="28.3" />
	</g>
	<g class="logo-g-1">
		<path
			d="M166.4,234l-8.1-27.1h-47.7l-7.9,27.1h-38.2l49.1-141.3h43.2l49.1,141.3h-39.4ZM134.5,127.8l-14.6,48.7h29.1l-14.5-48.7Z"
			fill="#fff" stroke-width="0" />
		<path
			d="M283,234v-11.7c-7.3,9.9-17.4,14.8-30.3,14.8s-23.4-4.7-30.7-14.1c-7.3-9.4-10.9-22.6-10.9-39.6s1.8-22.1,5.3-30.6c3.6-8.5,8.6-15,15.1-19.4,6.5-4.4,14.2-6.6,23.1-6.6s20.7,4.1,27.3,12.3v-46.5h35.8v141.3h-34.8ZM282,180.7c0-9-1.4-15.4-4.2-19.4-2.8-4-7.1-5.9-12.9-5.9-11.7,0-17.6,8.8-17.6,26.5s5.8,26.3,17.4,26.3,10.2-2.2,13.1-6.5c2.8-4,4.2-10,4.2-18v-3Z"
			fill="#fff" stroke-width="0" />
	</g>
	<g class="logo-g-2">
		<path
			d="M377.9,234.5c-19.2,0-28.2-9.1-28.2-28.2v-84.7c0-19.2,9.1-28.2,28.2-28.2h42c19.2,0,28.2,9.1,28.2,28.2v15.3h-14.5v-15.7c0-10.5-4-14.5-14.5-14.5h-40.3c-10.5,0-14.5,4-14.5,14.5v85.5c0,10.5,4,14.5,14.5,14.5h40.3c10.5,0,14.5-4,14.5-14.5v-15.7h14.5v15.3c0,19.2-9.1,28.2-28.2,28.2h-42Z"
			fill="#fff" stroke-width="0" />
		<path
			d="M531.8,125.6c18.6,0,27.4,8.9,27.4,27.4v54.1c0,18.6-8.9,27.4-27.4,27.4h-30.1c-18.6,0-27.4-8.9-27.4-27.4v-54.1c0-18.6,8.9-27.4,27.4-27.4h30.1ZM545.5,152.2c0-10.1-4-14.1-14.1-14.1h-29.2c-10.1,0-14.1,4-14.1,14.1v55.7c0,10.1,4,14.1,14.1,14.1h29.2c10.1,0,14.1-4,14.1-14.1v-55.7Z"
			fill="#fff" stroke-width="0" />
		<path
			d="M756.9,234.5h-48v-11.7h17.3v-71.8c0-10.1-4-14.1-15.5-14.1s-24.4,4.8-36.1,13.1v72.8h17.3v11.7h-48.4v-11.7h17.3v-71.8c0-10.1-4-14.1-15.5-14.1s-24.2,4.6-36.1,13.1v72.8h17.3v11.7h-49.2v-11.7h18.2v-85.5h-18.2v-11.7h31.9v14.5c10.7-9.1,19.2-15.7,36.3-15.7s24.6,5.4,27.8,16.7c10.3-9.5,20.8-16.7,37.5-16.7s29,8.9,29,27.4v71h16.9v11.7Z"
			fill="#fff" stroke-width="0" />
		<path
			d="M950.5,234.5h-48v-11.7h17.3v-71.8c0-10.1-4-14.1-15.5-14.1s-24.4,4.8-36.1,13.1v72.8h17.3v11.7h-48.4v-11.7h17.3v-71.8c0-10.1-4-14.1-15.5-14.1s-24.2,4.6-36.1,13.1v72.8h17.3v11.7h-49.2v-11.7h18.2v-85.5h-18.2v-11.7h31.9v14.5c10.7-9.1,19.2-15.7,36.3-15.7s24.6,5.4,27.8,16.7c10.3-9.5,20.8-16.7,37.5-16.7s29,8.9,29,27.4v71h16.9v11.7Z"
			fill="#fff" stroke-width="0" />
		<path
			d="M1067.1,234.5h-30.7v-14.9c-9.1,10.7-19.2,15.7-38.9,15.7s-31.7-9.7-31.7-32.3,8.9-28.8,27.4-30.7c9.9-1,25.4-2.2,43.2-3v-17.5c0-10.1-4-14.1-14.1-14.1h-25c-10.1,0-14.1,4-14.1,14.1v3h-13.7v-1.8c0-18.6,8.9-27.4,27.4-27.4h25.8c18.6,0,27.4,8.9,27.4,27.4v69.8h16.9v11.7ZM993.7,183.7c-10.1,1.2-14.1,4-14.1,19.4s4,20.2,18.2,20.2,26.8-4.6,38.7-13.1v-31.3l-42.8,4.8Z"
			fill="#fff" stroke-width="0" />
		<path
			d="M1199.4,234.5h-48v-11.7h17.3v-71.6c0-10.1-4-14.1-17.5-14.1s-26.2,4.6-38.1,13.1v72.6h17.3v11.7h-49.2v-11.7h18.2v-85.5h-18.2v-11.7h31.9v14.7c10.7-9.1,19.2-15.7,38.3-15.7s31.1,8.9,31.1,27.4v70.8h16.9v11.7Z"
			fill="#fff" stroke-width="0" />
		<path
			d="M1320.4,234.5h-31.1v-14.9c-10.7,9.1-19.2,15.7-39.9,15.7s-32.7-8.9-32.7-27.4v-55.7c0-18.6,8.9-27.4,32.7-27.4s29.2,6.7,39.9,15.7v-41.5h-20.2v-11.7h33.9v135.5h17.3v11.7ZM1289.4,150.4c-11.9-8.5-20.8-13.1-39.7-13.1s-19.2,4-19.2,14.1v57.3c0,10.1,4,14.1,19.2,14.1s27.8-4.6,39.7-13.1v-59.3Z"
			fill="#fff" stroke-width="0" />
		<path
			d="M1351.5,208.3c0,10.1,4,14.1,14.1,14.1h27.8c10.1,0,14.1-4,14.1-14.1v-7.9h13.7v6.7c0,18.6-8.9,27.4-27.4,27.4h-28.6c-18.6,0-27.4-8.9-27.4-27.4v-54.1c0-18.6,8.9-27.4,27.4-27.4h28.6c18.6,0,27.4,8.9,27.4,27.4v29.9h-69.8v25.4ZM1365.6,137.7c-10.1,0-14.1,4-14.1,14.1v19.8h56.1v-19.8c0-10.1-3.8-14.1-14.1-14.1h-27.8Z"
			fill="#fff" stroke-width="0" />
		<path
			d="M1510,138.9h-4.8c-13.9,0-24,5.8-34.7,12.7v71.2h22.2v11.7h-54.1v-11.7h18.2v-85.1l-18.2-.4v-11.7h31.9v15.7c9.7-8.1,19-15.7,34.7-15.7h4.8v13.3Z"
			fill="#fff" stroke-width="0" />
	</g>
</svg>